<svg xmlns="http://www.w3.org/2000/svg" width="20" height="20" viewBox="0 0 20 20">
    <path fill="#000" fill-rule="evenodd" d="M18.061 15.355l-2.45 2.41c-.225.222-.611.065-.611-.249v-2.023c0-.408.337-.739.752-.739h2.056c.319 0 .479.38.253.601m-7.394-2.568H4c-.552 0-1-.44-1-.984a.992.992 0 0 1 1-.983h6.667c.552 0 1 .44 1 .983a.992.992 0 0 1-1 .984M4 6.885h11.667c.552 0 1 .44 1 .984a.992.992 0 0 1-1 .983H4c-.552 0-1-.44-1-.983a.992.992 0 0 1 1-.984m0-3.934h11.667c.552 0 1 .44 1 .983a.992.992 0 0 1-1 .984H4c-.552 0-1-.44-1-.984a.992.992 0 0 1 1-.983M17.83 0H2.17C.97 0 0 .955 0 2.134v15.732C0 19.045.971 20 2.17 20h12.915c.272 0 .532-.106.724-.294L19.7 15.88a.998.998 0 0 0 .3-.711V2.134C20 .955 19.029 0 17.83 0"/>
</svg>
