<svg xmlns="http://www.w3.org/2000/svg" xmlns:xlink="http://www.w3.org/1999/xlink" width="150" height="150" viewBox="0 0 150 150">
    <defs>
        <path id="a" d="M0 .235h149.678v149.113H0z"/>
    </defs>
    <g fill="none" fill-rule="evenodd">
        <path fill="#3F4D60" d="M71.186 11.974a1.256 1.256 0 0 1 1.213-1.299 1.257 1.257 0 0 1 .094 2.509h-.049a1.253 1.253 0 0 1-1.274-1.223l.016.013zm10.337 1.52a1.25 1.25 0 1 1 .134-2.495 1.25 1.25 0 0 1 0 2.495.772.772 0 0 1-.15-.01l.016.01zm-19.487-.326a1.261 1.261 0 1 1 2.48-.459 1.259 1.259 0 0 1-1.006 1.466 1.058 1.058 0 0 1-.229.026 1.277 1.277 0 0 1-1.261-1.046l.016.013zm28.376 1.94a1.258 1.258 0 1 1 .637-2.436c.674.176 1.078.863.902 1.536a1.267 1.267 0 0 1-1.222.939 1.374 1.374 0 0 1-.334-.052l.017.013zm-37.255.58a1.262 1.262 0 0 1 2.386-.819 1.258 1.258 0 0 1-.783 1.6l-.005.002a1.251 1.251 0 0 1-1.598-.783zm45.807 2.306a1.245 1.245 0 1 1 .985-2.29 1.245 1.245 0 1 1-.985 2.29zm-54.219 1.46a1.257 1.257 0 0 1 .538-1.696c.619-.32 1.38-.08 1.701.537.321.617.08 1.377-.538 1.697h-.002a1.206 1.206 0 0 1-.581.144 1.245 1.245 0 0 1-1.118-.681zM107 22.11a1.254 1.254 0 0 1-.413-1.727 1.26 1.26 0 0 1 1.73-.412 1.254 1.254 0 0 1-.663 2.325c-.231 0-.458-.064-.654-.186zm-70.016 2.309a1.26 1.26 0 0 1 .289-1.762 1.266 1.266 0 0 1 1.765.289 1.26 1.26 0 0 1-.296 1.766 1.255 1.255 0 0 1-1.755-.293h-.003zm77.372 2.934a1.254 1.254 0 0 1-.173-1.767l.003-.003a1.27 1.27 0 0 1 1.784-.181c.543.441.624 1.238.182 1.78a1.27 1.27 0 0 1-1.796.171zM30.023 30.46a1.257 1.257 0 0 1 .033-1.78 1.264 1.264 0 0 1 1.784.034c.483.5.468 1.296-.033 1.779-.501.483-1.3.468-1.783-.032l-.001-.001zm90.85 3.14a1.254 1.254 0 0 1 .103-1.772 1.26 1.26 0 0 1 1.776.103 1.254 1.254 0 0 1-.935 2.09c-.36 0-.704-.153-.944-.42zm-96.86 3.838a1.257 1.257 0 0 1-.22-1.766 1.263 1.263 0 0 1 1.771-.219c.546.425.647 1.209.227 1.757-.24.31-.61.493-1.003.496a1.31 1.31 0 0 1-.775-.268zm102.422 3.284a1.257 1.257 0 0 1 .355-1.744 1.263 1.263 0 0 1 1.748.354 1.257 1.257 0 0 1-1.051 1.95 1.28 1.28 0 0 1-1.075-.56h.023zm-107.33 4.493a1.257 1.257 0 0 1-.54-1.696 1.262 1.262 0 0 1 1.778-.495 1.257 1.257 0 0 1-.614 2.361c-.227 0-.45-.058-.647-.17h.023zm111.764 3.353a1.258 1.258 0 0 1 .608-1.674 1.263 1.263 0 0 1 1.677.606 1.258 1.258 0 0 1-.602 1.67 1.276 1.276 0 0 1-1.683-.602zM15.36 53.632a1.251 1.251 0 0 1-.716-1.62c.251-.645.979-.965 1.624-.715a1.252 1.252 0 0 1-.463 2.42 1.165 1.165 0 0 1-.444-.085zm118.755 3.355a1.262 1.262 0 0 1 2.415-.727 1.258 1.258 0 0 1-.842 1.569c-.121.032-.245.049-.37.048a1.248 1.248 0 0 1-1.21-.896l.007.006zM12.873 62.514a1.285 1.285 0 1 1 .516-2.517 1.285 1.285 0 0 1-.248 2.543 1.532 1.532 0 0 1-.262-.032l-.006.006zm123.202 3.261a1.264 1.264 0 1 1 2.503-.364c.1.689-.376 1.328-1.065 1.43a1.463 1.463 0 0 1-.193 0 1.257 1.257 0 0 1-1.245-1.066zm-124.333 5.87a1.305 1.305 0 1 1 .095-2.607 1.305 1.305 0 0 1 0 2.607h-.095zm125.006 3.26v-.133c0-.696.566-1.26 1.263-1.26.698 0 1.264.564 1.264 1.26v.143c0 .697-.566 1.26-1.264 1.26a1.262 1.262 0 0 1-1.263-1.26v-.01zM10.582 79.677a1.26 1.26 0 0 1 1.16-1.352 1.26 1.26 0 0 1 .195 2.51h-.003a.356.356 0 0 1-.09 0 1.264 1.264 0 0 1-1.262-1.158zm126.578 5.651a1.306 1.306 0 0 1-1.21-1.394 1.306 1.306 0 0 1 1.396-1.207 1.305 1.305 0 1 1-.186 2.601zm-125.209 3.63a1.26 1.26 0 0 1 2.458-.551 1.246 1.246 0 0 1-1.23 1.529 1.25 1.25 0 0 1-1.228-.978zm123.04 5.318a1.254 1.254 0 0 1-.851-1.56v-.002a1.265 1.265 0 0 1 2.42.737c-.162.53-.652.892-1.207.894a1.087 1.087 0 0 1-.363-.069zM14.662 97.944a1.268 1.268 0 0 1 2.364-.916 1.264 1.264 0 0 1-.722 1.637l-.008.003a1.266 1.266 0 0 1-1.634-.724zm116.837 4.855a1.248 1.248 0 0 1-.585-1.676c.333-.613 1.1-.84 1.715-.508.562.305.808.98.573 1.574a1.252 1.252 0 0 1-1.144.724 1.188 1.188 0 0 1-.536-.114h-.023zm-112.853 3.63a1.264 1.264 0 0 1 .495-1.72 1.27 1.27 0 0 1 1.724.493 1.264 1.264 0 0 1-1.118 1.879 1.255 1.255 0 0 1-1.078-.652h-.023zm108.17 4.307a1.26 1.26 0 0 1-.359-1.748 1.266 1.266 0 0 1 1.752-.358 1.26 1.26 0 0 1-.694 2.315 1.356 1.356 0 0 1-.683-.209h-.016zm-102.96 3.512a1.247 1.247 0 0 1 .225-1.752 1.254 1.254 0 0 1 1.756.226 1.247 1.247 0 0 1-1.001 2.012 1.265 1.265 0 0 1-.98-.486zm97.195 3.636a1.257 1.257 0 0 1-.089-1.778 1.263 1.263 0 0 1 1.782-.088c.516.465.557 1.26.092 1.775-.24.266-.582.419-.942.42-.31.004-.61-.108-.843-.313v-.016zm-90.899 3.326a1.267 1.267 0 0 1-.035-1.78 1.267 1.267 0 0 1 1.788-.04 1.26 1.26 0 0 1 .04 1.784 1.266 1.266 0 0 1-1.788.04l-.005-.004zm84.138 2.935a1.257 1.257 0 0 1 .161-1.773 1.263 1.263 0 0 1 1.776.16 1.26 1.26 0 1 1-1.932 1.618l-.005-.005zm-76.909 3.065a1.26 1.26 0 0 1-.294-1.76 1.267 1.267 0 0 1 1.764-.294 1.26 1.26 0 0 1-.738 2.289c-.262 0-.518-.083-.732-.235zm69.308 2.136a1.257 1.257 0 0 1 .422-1.73 1.263 1.263 0 0 1 1.733.423 1.257 1.257 0 0 1-.42 1.728 1.238 1.238 0 0 1-.654.185 1.268 1.268 0 0 1-1.081-.587v-.02zM45.412 132.1a1.274 1.274 0 0 1-.574-1.71 1.279 1.279 0 0 1 1.713-.572 1.274 1.274 0 0 1-.567 2.416 1.27 1.27 0 0 1-.56-.114l-.012-.02zm53.003 1.305a1.258 1.258 0 0 1 .718-1.63 1.262 1.262 0 0 1 1.606.651c.27.637-.021 1.372-.654 1.654a1.271 1.271 0 0 1-1.67-.675zm-44.34 2.387a1.262 1.262 0 1 1 .827-2.387 1.265 1.265 0 0 1-.412 2.462 1.376 1.376 0 0 1-.418-.079l.003.004zm35.555.427a1.262 1.262 0 0 1 2.442-.636 1.258 1.258 0 0 1-1.229 1.578 1.27 1.27 0 0 1-1.216-.942h.003zm-26.447 1.93a1.278 1.278 0 1 1 .41-2.523 1.279 1.279 0 0 1-.184 2.54 1.988 1.988 0 0 1-.23-.017h.004zm17.346-.453a1.26 1.26 0 1 1 2.509-.266 1.26 1.26 0 0 1-1.12 1.384.707.707 0 0 1-.134 0 1.257 1.257 0 0 1-1.255-1.118zm-8.006 1.46a1.28 1.28 0 1 1 .052-2.555 1.28 1.28 0 0 1 1.255 1.304 1.28 1.28 0 0 1-1.255 1.252h-.052z"/>
        <g transform="translate(0 .092)">
            <mask id="b" fill="#fff">
                <use xlink:href="#a"/>
            </mask>
            <path fill="#CFD2D7" d="M79.32 1.953a.843.843 0 1 1 .092-1.682c.46.025.81.418.785.877v.013a.836.836 0 0 1-.834.789l-.043.003zM69.236 1.18a.843.843 0 1 1 1.68-.101.855.855 0 0 1-.792.89h-.049a.84.84 0 0 1-.843-.789h.004zm19.199 1.892a.84.84 0 1 1 .3-1.63.838.838 0 0 1-.15 1.662.463.463 0 0 1-.15-.035v.003zm-28.402-.623a.825.825 0 0 1 .64-.976l.013-.002a.843.843 0 0 1 .327 1.653 1.094 1.094 0 0 1-.16 0 .837.837 0 0 1-.82-.675zm37.297 2.88a.838.838 0 1 1 .526-1.593.838.838 0 0 1-.265 1.635.688.688 0 0 1-.261-.043zm-46.27-.464a.84.84 0 1 1 1.6-.523.838.838 0 0 1-.8 1.1.843.843 0 0 1-.8-.577zm54.806 3.832a.844.844 0 0 1 .716-1.53c.42.202.603.701.412 1.125a.844.844 0 0 1-1.112.405h-.016zm-63.399-.303a.844.844 0 0 1 1.518-.734.84.84 0 0 1-.391 1.124l-.01.004a.86.86 0 0 1-.352.075.843.843 0 0 1-.765-.47zm71.471 4.711a.84.84 0 0 1-.211-1.17.844.844 0 0 1 1.11-.251.84.84 0 0 1 .193 1.174.844.844 0 0 1-1.095.244l.003.003zm-79.546-.133a.85.85 0 0 1 .255-1.168.842.842 0 0 1 1.162.253.838.838 0 0 1-.708 1.293.852.852 0 0 1-.709-.378zm86.977 5.51a.84.84 0 0 1-.109-1.184.845.845 0 0 1 1.188-.109.84.84 0 0 1 .107 1.186.83.83 0 0 1-.653.303.82.82 0 0 1-.533-.195zm-94.418.033a.834.834 0 0 1 .111-1.183.847.847 0 0 1 1.191.115.843.843 0 0 1-.116 1.189.848.848 0 0 1-1.186-.108v-.013zm101.13 6.232a.833.833 0 0 1 .034-1.184.84.84 0 0 1 1.187.028.837.837 0 0 1-.606 1.417.836.836 0 0 1-.618-.261h.004zm-107.82.202a.843.843 0 0 1-.048-1.194l.006-.006a.851.851 0 0 1 1.196-.033c.341.318.36.852.041 1.192a.847.847 0 0 1-1.195.04zm113.683 6.845a.84.84 0 0 1 .283-1.156.844.844 0 0 1 1.083.177.84.84 0 1 1-1.366.979zm-119.526.368a.84.84 0 0 1-.08-1.187.844.844 0 0 1 1.06-.173c.376.272.46.796.189 1.17l-.005.007a.83.83 0 0 1-.68.346.856.856 0 0 1-.484-.163zm124.47 7.36a.834.834 0 0 1 .375-1.12.838.838 0 0 1 1.09.314.84.84 0 0 1-.327 1.142.917.917 0 0 1-.412.1.848.848 0 0 1-.725-.436zm-129.352.531a.847.847 0 1 1 .805-1.493.847.847 0 0 1-.4 1.594.873.873 0 0 1-.405-.1zm133.274 7.742a.847.847 0 0 1 .471-1.093.841.841 0 1 1 .624 1.562.986.986 0 0 1-.327.059.837.837 0 0 1-.768-.528zm-137.127.697a.839.839 0 1 1 .614-1.562c.43.168.644.652.475 1.082l-.004.01a.834.834 0 0 1-.784.539.983.983 0 0 1-.301-.069zm140 7.996a.84.84 0 0 1 1.627-.417.839.839 0 0 1-.82 1.046.839.839 0 0 1-.81-.613l.003-.016zm-142.758.848a.838.838 0 0 1-.606-1.02l.001-.004a.837.837 0 0 1 1.617.43.836.836 0 0 1-.8.62.882.882 0 0 1-.215-.01l.003-.016zm144.484 8.152a.843.843 0 1 1 1.671-.222l.002.013a.842.842 0 0 1-.732.94h-.111a.85.85 0 0 1-.834-.73h.004zm-146.102.978a.898.898 0 1 1 .101 0h-.1zm146.687 8.348v-.169a.842.842 0 1 1 1.682 0v.17a.842.842 0 1 1-1.683 0zM0 74.9a.842.842 0 1 1 1.685.002A.842.842 0 0 1 0 74.9zm148.16 10.008a.842.842 0 0 1 .203-1.67.838.838 0 0 1-.102 1.67h-.101zM.588 84.254a.843.843 0 1 1 1.673-.209.842.842 0 0 1-.732.94h-.098a.85.85 0 0 1-.843-.73zm145.739 9.734a.841.841 0 0 1-.605-1.024.83.83 0 0 1 1.02-.603.84.84 0 0 1-.412 1.63l-.003-.003zM2.357 93.46a.84.84 0 0 1 1.627-.418.838.838 0 0 1-.817 1.047.837.837 0 0 1-.81-.63zm141 9.316a.84.84 0 0 1-.483-1.088l.002-.004a.85.85 0 0 1 1.094-.47.841.841 0 0 1-.326 1.63.759.759 0 0 1-.288-.068zM5.26 102.38a.84.84 0 0 1 .432-1.108.844.844 0 0 1 1.134.486.834.834 0 0 1-.46 1.088l-.01.004a.853.853 0 0 1-1.095-.47zm134.03 8.74a.84.84 0 0 1-.37-1.131.844.844 0 0 1 1.187-.34.838.838 0 0 1-.412 1.572.896.896 0 0 1-.405-.098v-.003zm-130.017-.268a.84.84 0 0 1 .325-1.145.844.844 0 0 1 1.148.325.84.84 0 0 1-.325 1.144l-.004.002a.851.851 0 0 1-1.144-.326zm124.942 8.048a.84.84 0 0 1-.08-1.187.845.845 0 0 1 1.06-.173.833.833 0 0 1 .196 1.164l-.01.014a.83.83 0 0 1-.68.345.848.848 0 0 1-.486-.173v.01zm-119.89-.134a.837.837 0 0 1 .185-1.17.841.841 0 0 1 1.173.183.837.837 0 0 1-.184 1.17l-.003.003a.897.897 0 0 1-.497.16.838.838 0 0 1-.673-.355v.01zm113.89 7.207a.84.84 0 0 1-.039-1.19.844.844 0 0 1 1.192-.038.84.84 0 0 1 .033 1.195.844.844 0 0 1-1.186.033zm-107.896 0a.84.84 0 0 1-.084-1.187.844.844 0 0 1 1.313.049.84.84 0 0 1-.076 1.187.844.844 0 0 1-1.153-.036v-.013zm101.05 6.27a.84.84 0 0 1 .083-1.186.844.844 0 0 1 1.189.083.84.84 0 0 1-.083 1.186l-.01.009a.88.88 0 0 1-.54.192.835.835 0 0 1-.64-.29v.007zm-94.2.144a.827.827 0 0 1-.108-1.177.841.841 0 0 1 1.182-.117.837.837 0 0 1-.528 1.486.818.818 0 0 1-.546-.199v.007zm86.624 5.217a.84.84 0 0 1 .261-1.157.84.84 0 1 1 .902 1.418.854.854 0 0 1-1.163-.26zm-79.023.294a.84.84 0 0 1-.256-1.163.844.844 0 0 1 1.165-.256.84.84 0 0 1 .251 1.158.83.83 0 0 1-.706.385.882.882 0 0 1-.454-.124zm70.85 4.099a.84.84 0 0 1 1.521-.72.836.836 0 0 1-.4 1.114.843.843 0 0 1-1.127-.401l.006.007zm-62.601.427a.84.84 0 0 1 .715-1.52.84.84 0 0 1-.363 1.605.785.785 0 0 1-.359-.091l.007.006zm53.921 2.89a.828.828 0 0 1 .54-1.06.838.838 0 1 1 .258 1.637.84.84 0 0 1-.798-.584v.006zm-45.183.563a.838.838 0 1 1 .509-1.597c.441.14.686.61.546 1.052l-.003.007a.83.83 0 0 1-.79.58.893.893 0 0 1-.262-.048v.006zm36.15 1.63a.846.846 0 1 1 1.66-.326.838.838 0 0 1-.67.979h-.003a.846.846 0 0 1-.987-.652zm-27.058.682a.845.845 0 0 1-.674-.978.84.84 0 0 1 1.646.34.846.846 0 0 1-.816.68 1.01 1.01 0 0 1-.15-.042h-.006zm17.83.369a.832.832 0 0 1 .77-.89h.014a.843.843 0 0 1 .108 1.68l-.059-.001a.836.836 0 0 1-.826-.79h-.007zm-8.497.789a.868.868 0 1 1 .049 0h-.05z" mask="url(#b)"/>
        </g>
        <path stroke="#3F4D60" stroke-linecap="round" stroke-width="1.5" d="M54.823 96.3V82.33h7.096V96.3"/>
        <path stroke="#0DA7FC" stroke-linecap="round" stroke-width="1.5" d="M66.05 96.3v-8.46h7.096v8.46"/>
        <path stroke="#3F4D60" stroke-linecap="round" stroke-width="1.5" d="M77.254 96.3V73.073h7.097v23.229M88.317 96.3V80.277h7.097v16.025"/>
        <path stroke="#3F4D60" stroke-linecap="round" stroke-width="1.5" d="M105.895 105.41H43.862c-3.736 0-6.765-3.023-6.765-6.75v-.954c0-.776.63-1.405 1.408-1.405h72.747c.777 0 1.408.629 1.408 1.405v.954c0 3.727-3.029 6.75-6.765 6.75zM88.317 53.921h12.74a5.384 5.384 0 0 1 5.39 5.378v37.002H43.563V59.299a5.384 5.384 0 0 1 5.39-5.378h8.723"/>
        <path stroke="#0DA7FC" stroke-linecap="round" stroke-width="1.5" d="M86.053 66.867h-19.73a2.261 2.261 0 0 1-2.263-2.259V48.97a2.261 2.261 0 0 1 2.263-2.259h19.73a2.261 2.261 0 0 1 2.264 2.26v15.638a2.262 2.262 0 0 1-2.264 2.26zM68.693 46.71v-5.076a5.082 5.082 0 0 1 5.087-5.076h4.817a5.082 5.082 0 0 1 5.087 5.076"/>
        <path stroke="#0DA7FC" stroke-linecap="round" stroke-width="1.5" d="M79.231 54.465a3.04 3.04 0 0 0-3.17-3.033c-1.578.065-2.873 1.377-2.914 2.952a3.02 3.02 0 0 0 1.107 2.421c.389.32.603.803.603 1.305v3.377a1.33 1.33 0 0 0 1.331 1.328 1.33 1.33 0 0 0 1.332-1.328V58.11c0-.51.23-.992.622-1.32a3.02 3.02 0 0 0 1.09-2.325z"/>
    </g>
</svg>
