<svg xmlns="http://www.w3.org/2000/svg" width="170" height="160" viewBox="0 0 170 160">
    <defs>
        <linearGradient id="a" x1="50.027%" x2="50.027%" y1="-23.643%" y2="126.953%">
            <stop offset="0%" stop-color="#FF0029"/>
            <stop offset="100%" stop-color="#AB00FF"/>
        </linearGradient>
        <linearGradient id="b" x1="-25.048%" x2="100.578%" y1="6.831%" y2="143.318%">
            <stop offset="0%" stop-color="#FF9100"/>
            <stop offset="51.53%" stop-color="#FF0029"/>
            <stop offset="100%" stop-color="#AB00FF"/>
        </linearGradient>
    </defs>
    <g fill="none" fill-rule="nonzero">
        <g fill="#333">
            <path d="M20.65 151.66l-1.92-4.898H7.011L5.09 151.66H0l10.085-25.645h5.57l10.086 25.645h-5.09zm-7.78-21.034l-4.61 12.198h9.22l-4.61-12.198zM28.43 151.66v-25.645h4.034v25.645zM37.459 156.463l1.92-2.882c1.538 1.729 3.458 2.401 5.86 2.401 2.689 0 5.474-1.248 5.474-4.994v-2.21c-1.44 1.826-3.553 3.074-5.955 3.074-4.706 0-8.26-3.458-8.26-9.509 0-5.955 3.458-9.508 8.26-9.508 2.306 0 4.419 1.056 5.955 3.073v-2.593h4.034v17.577c0 6.723-4.994 8.452-9.508 8.452-3.17-.096-5.475-.768-7.78-2.881zm13.254-10.758v-6.915c-.864-1.345-2.881-2.498-4.802-2.498-3.17 0-5.187 2.402-5.187 5.955 0 3.554 2.017 5.955 5.187 5.955 1.921 0 3.938-1.152 4.802-2.497zM58.878 142.44c0-5.283 3.65-9.701 9.508-9.701 5.955 0 9.605 4.418 9.605 9.7 0 5.38-3.65 9.797-9.605 9.797-5.859-.096-9.508-4.514-9.508-9.797zm14.887 0c0-3.266-1.921-6.148-5.379-6.148-3.457 0-5.378 2.882-5.378 6.147 0 3.266 1.92 6.148 5.378 6.148s5.379-2.882 5.379-6.148zM80.488 148.106l2.498-3.457a10.802 10.802 0 0 0 8.068 3.553c3.65 0 5.186-1.825 5.186-3.457 0-5.38-14.983-2.017-14.983-11.526 0-4.226 3.746-7.492 9.316-7.492 4.034 0 7.204 1.249 9.605 3.554l-2.593 3.362c-2.017-2.017-4.706-2.882-7.396-2.882-2.69 0-4.322 1.249-4.322 3.17 0 4.802 14.888 1.825 14.888 11.333 0 4.227-2.978 7.876-9.893 7.876-4.707 0-8.068-1.632-10.374-4.034zM105.077 147.434v-10.757h-3.074v-3.554h3.074v-5.09h4.034v5.09h3.746v3.554h-3.746v9.7c0 1.25.576 2.21 1.729 2.21.768 0 1.536-.289 1.825-.673l.96 3.074c-.768.672-1.921 1.152-3.842 1.152-3.073 0-4.706-1.632-4.706-4.706zM115.354 142.44c0-5.283 3.65-9.701 9.509-9.701 5.955 0 9.604 4.418 9.604 9.7 0 5.38-3.65 9.797-9.604 9.797-5.86-.096-9.51-4.514-9.51-9.797zm14.887 0c0-3.266-1.92-6.148-5.378-6.148s-5.379 2.882-5.379 6.147c0 3.266 1.92 6.148 5.379 6.148 3.457 0 5.378-2.882 5.378-6.148zM138.501 151.66v-18.537h4.035v2.69c1.344-1.73 3.65-3.17 6.05-3.17v4.034c-.384-.096-.768-.096-1.248-.096-1.729 0-3.938 1.152-4.802 2.497v12.678H138.5v-.096zM150.7 142.44c0-5.38 3.938-9.701 9.412-9.701 5.571 0 9.125 4.226 9.125 10.085v.96h-14.311c.288 2.786 2.4 5.09 5.955 5.09 1.825 0 3.938-.768 5.282-2.016l1.825 2.689c-1.825 1.729-4.61 2.69-7.491 2.69-5.667-.097-9.797-3.939-9.797-9.798zm9.412-6.436c-3.457 0-4.994 2.69-5.186 4.899h10.469c-.096-2.21-1.633-4.899-5.283-4.899z"/>
        </g>
        <path fill="url(#a)" d="M23.628 95.664l27.278-27.758 27.181 27.758V79.048L50.906 51.29 23.628 79.048z" transform="translate(34.577)"/>
        <path fill="#FF8F1C" d="M35.346 39.38h38.611l11.526 11.91H46.872z"/>
        <path fill="url(#b)" d="M101.043 39.38H62.43V11.91L50.906.096V51.29h38.61z" transform="translate(34.577)"/>
    </g>
</svg>
