<svg xmlns="http://www.w3.org/2000/svg" width="64" height="64" viewBox="0 0 64 64">
    <g fill="none" fill-rule="evenodd">
        <g>
            <circle cx="32" cy="32" r="32" fill="#FFAE2C" fill-rule="nonzero"/>
            <path stroke="#FFF" stroke-linecap="round" stroke-linejoin="round" stroke-width="2" d="M45.934 39.6L32 31.91V10c-12.15 0-22 9.85-22 22s9.85 22 22 22c7.945 0 14.907-4.212 18.774-10.525"/>
        </g>
        <path fill="#FFF" fill-rule="nonzero" d="M42.745 13.743a1.466 1.466 0 0 1-.006-2.548 1.478 1.478 0 0 1 1.479.006c.698.408.935 1.301.53 2-.405.698-1.3.94-2.003.542zm7.547 7.519a1.462 1.462 0 0 1-.006-1.473 1.474 1.474 0 0 1 2.557.006c.4.7.158 1.592-.544 1.996a1.476 1.476 0 0 1-2.007-.529zm2.762 10.27c0-.81.66-1.467 1.473-1.467A1.47 1.47 0 0 1 56 31.533c0 .81-.66 1.467-1.473 1.467a1.47 1.47 0 0 1-1.473-1.467z"/>
    </g>
</svg>
