<?xml version="1.0" encoding="utf-8"?>
<!-- Generator: Adobe Illustrator 21.1.0, SVG Export Plug-In . SVG Version: 6.00 Build 0)  -->
<svg version="1.1" id="Layer_1" xmlns="http://www.w3.org/2000/svg" xmlns:xlink="http://www.w3.org/1999/xlink" x="0px" y="0px"
	 viewBox="0 0 65.5 66.1" style="enable-background:new 0 0 65.5 66.1;" xml:space="preserve">
<style type="text/css">
	.st0{fill:url(#path1948_2_);}
	.st1{fill:url(#path1950_2_);}
</style>
<g id="python_logo" transform="translate(7725.691 495.697)">
	
		<linearGradient id="path1948_2_" gradientUnits="userSpaceOnUse" x1="-8414.792" y1="-68.3569" x2="-8413.4688" y2="-67.2289" gradientTransform="matrix(48.4713 0 0 -48.957 400203.8438 -3843.9434)">
		<stop  offset="0" style="stop-color:#5A9FD4"/>
		<stop  offset="1" style="stop-color:#306998"/>
	</linearGradient>
	<path id="path1948_1_" class="st0" d="M-7693.4-495.7c-2.5,0-5.1,0.2-7.6,0.7c-6.6,1.2-7.9,3.7-7.9,8.2v6h15.8v2h-21.7
		c-4.8-0.1-8.9,3.3-9.8,8c-1.5,5.3-1.5,10.8,0,16.1c1.1,4.6,3.8,8,8.4,8h5.4v-7.2c0.1-5.4,4.4-9.7,9.8-9.8h15.8c4.4,0,8-3.6,7.9-8
		c0,0,0,0,0-0.1v-15c0-4.3-3.6-7.5-7.9-8.2C-7687.9-495.5-7690.6-495.7-7693.4-495.7z M-7701.9-490.9c1.7,0,3,1.3,3.1,2.9
		c0,1.7-1.3,3-2.9,3.1c-1.7,0-3-1.3-3.1-2.9c0,0,0,0,0-0.1C-7704.8-489.5-7703.5-490.8-7701.9-490.9z"/>
	
		<linearGradient id="path1950_2_" gradientUnits="userSpaceOnUse" x1="-8412.4277" y1="-65.2823" x2="-8412.9004" y2="-65.9413" gradientTransform="matrix(48.5987 0 0 -49.214 401273.5625 -3845.4397)">
		<stop  offset="0" style="stop-color:#FFD43B"/>
		<stop  offset="1" style="stop-color:#FFE873"/>
	</linearGradient>
	<path id="path1950_1_" class="st1" d="M-7675.2-478.8v7c-0.1,5.4-4.4,9.8-9.8,10h-15.8c-4.4,0.1-7.9,3.6-7.9,8v15
		c0,4.3,3.7,6.8,7.9,8c5.1,1.6,10.6,1.6,15.8,0c4-1.1,7.9-3.4,7.9-7.9v-6h-15.8v-2h23.7c4.6,0,6.3-3.2,7.9-8c1.6-4.9,1.5-9.7,0-16.1
		c-1.2-4.6-3.4-8-7.9-8L-7675.2-478.8z M-7684.1-440.7c1.7,0,3,1.3,3.1,2.9c0,1.7-1.3,3-2.9,3.1c-1.7,0-3-1.3-3.1-2.9
		c0,0,0-0.1,0-0.1C-7687.1-439.3-7685.8-440.7-7684.1-440.7C-7684.1-440.7-7684.1-440.7-7684.1-440.7z"/>
</g>
</svg>
