<svg xmlns="http://www.w3.org/2000/svg" xmlns:xlink="http://www.w3.org/1999/xlink" width="22" height="17" viewBox="0 0 22 17">
    <defs>
        <path id="a" d="M0 .022h20.756V15.95H0z"/>
    </defs>
    <g fill="none" fill-rule="evenodd">
        <g transform="translate(0 .528)">
            <mask id="b" fill="#fff">
                <use xlink:href="#a"/>
            </mask>
            <path fill="#FFF" d="M15.783 11.416a1.861 1.861 0 0 1-1.847-1.873l.015-3.094a1.862 1.862 0 0 1 1.866-1.854s2.87.014 4.227.023a.697.697 0 0 0 .7-.693l.012-2.37A1.437 1.437 0 0 0 19.326.11L1.508.022a1.436 1.436 0 0 0-1.444 1.43L0 14.418a1.438 1.438 0 0 0 1.43 1.444l17.818.088a1.437 1.437 0 0 0 1.443-1.43l.012-2.385a.696.696 0 0 0-.693-.7l-4.227-.02" mask="url(#b)"/>
        </g>
        <path fill="#FFF" d="M17.443 9.75a1.216 1.216 0 1 1 .011-2.431 1.216 1.216 0 0 1-.011 2.431m3.21-3.61l-4.862-.025a.842.842 0 0 0-.847.839l-.015 3.108a.842.842 0 0 0 .838.846l4.862.024a.842.842 0 0 0 .847-.838l.015-3.108a.842.842 0 0 0-.838-.846"/>
    </g>
</svg>
