<?xml version="1.0" encoding="utf-8"?>
<!-- Generator: Adobe Illustrator 21.1.0, SVG Export Plug-In . SVG Version: 6.00 Build 0)  -->
<svg version="1.1" id="Layer_1" xmlns="http://www.w3.org/2000/svg" xmlns:xlink="http://www.w3.org/1999/xlink" x="0px" y="0px"
	 viewBox="0 0 102.5 139.1" style="enable-background:new 0 0 102.5 139.1;" xml:space="preserve">
<style type="text/css">
	.st0{fill:#5382A1;}
	.st1{fill:#EA2D2E;}
</style>
<g id="java_logo" transform="translate(7403.465 418.556)">
	<path id="Path_792" class="st0" d="M-7370.5-311c0,0-5.3,3.1,3.8,4.2c11,1.2,16.7,1.1,28.8-1.3c2.4,1.5,5,2.7,7.6,3.8
		C-7357.5-292.7-7391.9-305-7370.5-311"/>
	<path id="Path_793" class="st0" d="M-7373.8-326.2c0,0-6,4.4,3.1,5.3c11.7,1.2,21,1.3,37.2-1.8c1.7,1.5,3.6,2.7,5.7,3.5
		C-7360.7-309.6-7397.4-318.4-7373.8-326.2"/>
	<path id="Path_794" class="st1" d="M-7345.7-352.1c6.7,7.7-1.7,14.7-1.7,14.7s17-8.8,9.2-19.8c-7.3-10.3-12.9-15.4,17.4-33
		C-7320.9-390.1-7368.5-378.3-7345.7-352.1"/>
	<path id="Path_795" class="st0" d="M-7309.8-299.7c0,0,4,3.3-4.3,5.8c-15.7,4.8-65.4,6.2-79.2,0.2c-4.9-2.2,4.4-5.1,7.3-5.8
		c1.6-0.4,3.2-0.6,4.8-0.6c-5.5-3.9-35.7,7.6-15.3,10.9C-7341-280.2-7295.4-293.2-7309.8-299.7"/>
	<path id="Path_796" class="st0" d="M-7367.9-342c0,0-25.3,6-9,8.2c6.9,0.9,20.6,0.7,33.4-0.3c10.5-0.9,21-2.8,21-2.8
		c-2.2,1-4.3,2.1-6.4,3.4c-25.7,6.7-75.2,3.6-61-3.3C-7377.8-342.6-7367.9-342-7367.9-342"/>
	<path id="Path_797" class="st0" d="M-7322.6-316.6c26.1-13.5,14-26.6,5.6-24.9c-1,0.2-2,0.5-3,0.8c0.6-0.8,1.3-1.4,2.2-1.7
		c16.7-5.8,29.5,17.3-5.3,26.5C-7322.9-316.1-7322.7-316.4-7322.6-316.6"/>
	<path id="Path_798" class="st1" d="M-7338.3-418.6c0,0,14.4,14.5-13.7,36.7c-22.6,17.9-5.1,28,0,39.6
		c-13.2-11.9-22.9-22.4-16.4-32.1C-7358.9-388.7-7332.5-395.6-7338.3-418.6"/>
	<path id="Path_799" class="st0" d="M-7365.3-279.9c25.1,1.6,63.5-0.9,64.4-12.7c0,0-1.7,4.5-20.7,8.1c-21.4,4-47.7,3.5-63.4,1
		C-7385-283.6-7381.8-280.9-7365.3-279.9"/>
</g>
</svg>
